<svg xmlns="http://www.w3.org/2000/svg" width="20" height="20" viewBox="0 0 20 20"><defs><style>.a{fill:#ea4335;}.a,.b,.c,.d,.e{fill-rule:evenodd;}.b{fill:#4285f4;}.c{fill:#fbbc05;}.d{fill:#34a853;}.e{fill:none;}</style></defs><path class="a" d="M9.893,3.867A5.542,5.542,0,0,1,13.76,5.356L16.582,2.6A9.608,9.608,0,0,0,9.893,0,9.993,9.993,0,0,0,.96,5.511L4.193,8.022A6.045,6.045,0,0,1,9.893,3.867Z" transform="translate(0.107)"/><path class="b" d="M18.6,9.4a8.567,8.567,0,0,0-.211-2.044H9v3.711h5.511a4.887,4.887,0,0,1-2.044,3.244l3.156,2.444A9.777,9.777,0,0,0,18.6,9.4Z" transform="translate(1 0.818)"/><path class="c" d="M4.311,11.427a6.156,6.156,0,0,1-.333-1.978A6.469,6.469,0,0,1,4.3,7.471L1.067,4.96a9.979,9.979,0,0,0,0,8.978Z" transform="translate(0 0.551)"/><path class="d" d="M9.892,18.8a9.531,9.531,0,0,0,6.622-2.422l-3.156-2.444a5.919,5.919,0,0,1-3.467,1A6.02,6.02,0,0,1,4.2,10.78L.97,13.291A9.976,9.976,0,0,0,9.892,18.8Z" transform="translate(0.108 1.198)"/><path class="e" d="M0,0H20V20H0Z"/></svg>